ISO-10303-21;
HEADER;
FILE_DESCRIPTION(('Open CASCADE Model'),'2;1');
FILE_NAME('Open CASCADE Shape Model','2026-10-04T00:53:50',('Author'),(
    'Open CASCADE'),'Open CASCADE STEP processor 8.0','Open CASCADE 8.0'
  ,'Unknown');
FILE_SCHEMA(('AUTOMOTIVE_DESIGN { 1 0 10303 214 1 1 1 1 }'));
ENDSEC;
DATA;
#1 = APPLICATION_PROTOCOL_DEFINITION('international standard',
  'automotive_design',2000,#2);
#2 = APPLICATION_CONTEXT(
  'core data for automotive mechanical design processes');
#3 = SHAPE_DEFINITION_REPRESENTATION(#4,#10);
#4 = PRODUCT_DEFINITION_SHAPE('','',#5);
#5 = PRODUCT_DEFINITION('design','',#6,#9);
#6 = PRODUCT_DEFINITION_FORMATION('','',#7);
#7 = PRODUCT('Open CASCADE STEP translator 8.0 2',
  'Open CASCADE STEP translator 8.0 2','',(#8));
#8 = PRODUCT_CONTEXT('',#2,'mechanical');
#9 = PRODUCT_DEFINITION_CONTEXT('part definition',#2,'design');
#10 = MANIFOLD_SURFACE_SHAPE_REPRESENTATION('',(#11,#15),#404);
#11 = AXIS2_PLACEMENT_3D('',#12,#13,#14);
#12 = CARTESIAN_POINT('',(0.,0.,0.));
#13 = DIRECTION('',(0.,0.,1.));
#14 = DIRECTION('',(1.,0.,-0.));
#15 = SHELL_BASED_SURFACE_MODEL('',(#16));
#16 = OPEN_SHELL('',(#17));
#17 = ADVANCED_FACE('',(#18),#46,.T.);
#18 = FACE_BOUND('',#19,.T.);
#19 = EDGE_LOOP('',(#20,#338,#373,#403));
#20 = ORIENTED_EDGE('',*,*,#21,.F.);
#21 = EDGE_CURVE('',#22,#22,#24,.T.);
#22 = VERTEX_POINT('',#23);
#23 = CARTESIAN_POINT('',(-7.583233282241E-12,-79.57916824587,-60.));
#24 = SURFACE_CURVE('',#25,(#45),.PCURVE_S1.);
#25 = B_SPLINE_CURVE_WITH_KNOTS('',6,(#26,#27,#28,#29,#30,#31,#32,#33,
    #34,#35,#36,#37,#38,#39,#40,#41,#42,#43,#44),.UNSPECIFIED.,.T.,.F.,(
    7,4,4,4,7),(0.,0.251034836102,0.5,0.748965163898,1.),.UNSPECIFIED.);
#26 = CARTESIAN_POINT('',(-7.583233282241E-12,-79.57916824587,-60.));
#27 = CARTESIAN_POINT('',(-18.28959107006,-79.65610021215,-60.));
#28 = CARTESIAN_POINT('',(-42.82423665796,-78.08691548938,
    -59.99999999999));
#29 = CARTESIAN_POINT('',(-56.44795196742,-58.6085918623,-60.));
#30 = CARTESIAN_POINT('',(-63.19431531976,-39.26746433471,
    -59.99999999999));
#31 = CARTESIAN_POINT('',(-65.36989368841,1.512527505826,-60.));
#32 = CARTESIAN_POINT('',(-62.95582075015,37.942950473759,
    -59.99999999999));
#33 = CARTESIAN_POINT('',(-57.2847684041,61.31417775915,-60.));
#34 = CARTESIAN_POINT('',(-39.86461281858,77.283884252189,
    -59.99999999999));
#35 = CARTESIAN_POINT('',(2.899014361901E-12,81.788522145664,-60.));
#36 = CARTESIAN_POINT('',(39.864612818575,77.283884252187,
    -59.99999999999));
#37 = CARTESIAN_POINT('',(57.284768404121,61.314177759154,-60.));
#38 = CARTESIAN_POINT('',(62.955820750143,37.942950473754,
    -59.99999999999));
#39 = CARTESIAN_POINT('',(65.369893688431,1.512527505832,-60.));
#40 = CARTESIAN_POINT('',(63.194315319755,-39.26746433473,
    -59.99999999999));
#41 = CARTESIAN_POINT('',(56.447951967438,-58.6085918623,-60.));
#42 = CARTESIAN_POINT('',(42.824236657946,-78.0869154894,-59.99999999999
    ));
#43 = CARTESIAN_POINT('',(18.289591070055,-79.65610021215,-60.));
#44 = CARTESIAN_POINT('',(-7.583233282241E-12,-79.57916824587,-60.));
#45 = PCURVE('',#46,#332);
#46 = B_SPLINE_SURFACE_WITH_KNOTS('',6,6,(
    (#47,#48,#49,#50,#51,#52,#53,#54,#55,#56,#57,#58,#59,#60,#61,#62,#63
      ,#64,#65)
    ,(#66,#67,#68,#69,#70,#71,#72,#73,#74,#75,#76,#77,#78,#79,#80,#81
      ,#82,#83,#84)
    ,(#85,#86,#87,#88,#89,#90,#91,#92,#93,#94,#95,#96,#97,#98,#99,#100
      ,#101,#102,#103)
    ,(#104,#105,#106,#107,#108,#109,#110,#111,#112,#113,#114,#115,#116
      ,#117,#118,#119,#120,#121,#122)
    ,(#123,#124,#125,#126,#127,#128,#129,#130,#131,#132,#133,#134,#135
      ,#136,#137,#138,#139,#140,#141)
    ,(#142,#143,#144,#145,#146,#147,#148,#149,#150,#151,#152,#153,#154
      ,#155,#156,#157,#158,#159,#160)
    ,(#161,#162,#163,#164,#165,#166,#167,#168,#169,#170,#171,#172,#173
      ,#174,#175,#176,#177,#178,#179)
    ,(#180,#181,#182,#183,#184,#185,#186,#187,#188,#189,#190,#191,#192
      ,#193,#194,#195,#196,#197,#198)
    ,(#199,#200,#201,#202,#203,#204,#205,#206,#207,#208,#209,#210,#211
      ,#212,#213,#214,#215,#216,#217)
    ,(#218,#219,#220,#221,#222,#223,#224,#225,#226,#227,#228,#229,#230
      ,#231,#232,#233,#234,#235,#236)
    ,(#237,#238,#239,#240,#241,#242,#243,#244,#245,#246,#247,#248,#249
      ,#250,#251,#252,#253,#254,#255)
    ,(#256,#257,#258,#259,#260,#261,#262,#263,#264,#265,#266,#267,#268
      ,#269,#270,#271,#272,#273,#274)
    ,(#275,#276,#277,#278,#279,#280,#281,#282,#283,#284,#285,#286,#287
      ,#288,#289,#290,#291,#292,#293)
    ,(#294,#295,#296,#297,#298,#299,#300,#301,#302,#303,#304,#305,#306
      ,#307,#308,#309,#310,#311,#312)
    ,(#313,#314,#315,#316,#317,#318,#319,#320,#321,#322,#323,#324,#325
      ,#326,#327,#328,#329,#330,#331
    )),.UNSPECIFIED.,.F.,.T.,.F.,(7,1,1,1,1,1,1,1,1,7),(7,4,4,4,7),(0.,
    0.101492975512,0.196052950833,0.290143557309,0.412716444281,
    0.532191218721,0.644147998314,0.755128448176,0.870417315614,1.),(0.,
    0.251034836102,0.5,0.748965163898,1.),.UNSPECIFIED.);
#47 = CARTESIAN_POINT('',(-7.583233282241E-12,-79.57916824587,-60.));
#48 = CARTESIAN_POINT('',(-18.28959107006,-79.65610021215,-60.));
#49 = CARTESIAN_POINT('',(-42.82423665796,-78.08691548938,
    -59.99999999999));
#50 = CARTESIAN_POINT('',(-56.44795196742,-58.6085918623,-60.));
#51 = CARTESIAN_POINT('',(-63.19431531976,-39.26746433471,
    -59.99999999999));
#52 = CARTESIAN_POINT('',(-65.36989368841,1.512527505826,-60.));
#53 = CARTESIAN_POINT('',(-62.95582075015,37.942950473759,
    -59.99999999999));
#54 = CARTESIAN_POINT('',(-57.2847684041,61.31417775915,-60.));
#55 = CARTESIAN_POINT('',(-39.86461281858,77.283884252189,
    -59.99999999999));
#56 = CARTESIAN_POINT('',(2.899014361901E-12,81.788522145664,-60.));
#57 = CARTESIAN_POINT('',(39.864612818575,77.283884252187,
    -59.99999999999));
#58 = CARTESIAN_POINT('',(57.284768404121,61.314177759154,-60.));
#59 = CARTESIAN_POINT('',(62.955820750143,37.942950473754,
    -59.99999999999));
#60 = CARTESIAN_POINT('',(65.369893688431,1.512527505832,-60.));
#61 = CARTESIAN_POINT('',(63.194315319755,-39.26746433473,
    -59.99999999999));
#62 = CARTESIAN_POINT('',(56.447951967438,-58.6085918623,-60.));
#63 = CARTESIAN_POINT('',(42.824236657946,-78.0869154894,-59.99999999999
    ));
#64 = CARTESIAN_POINT('',(18.289591070055,-79.65610021215,-60.));
#65 = CARTESIAN_POINT('',(-7.583233282241E-12,-79.57916824587,-60.));
#66 = CARTESIAN_POINT('',(-8.108132818491E-12,-85.08751369072,
    -57.34350613386));
#67 = CARTESIAN_POINT('',(-19.55556793159,-85.16977076726,
    -57.34350613386));
#68 = CARTESIAN_POINT('',(-45.7884632781,-83.49196953453,-57.34350613386
    ));
#69 = CARTESIAN_POINT('',(-60.35519083338,-62.66538683931,
    -57.34350613385));
#70 = CARTESIAN_POINT('',(-67.56852689553,-41.98549674277,
    -57.34350613386));
#71 = CARTESIAN_POINT('',(-69.89469539301,1.617222291918,-57.34350613386
    ));
#72 = CARTESIAN_POINT('',(-67.31352410517,40.569302105889,
    -57.34350613386));
#73 = CARTESIAN_POINT('',(-61.24993039378,65.558249156335,
    -57.34350613386));
#74 = CARTESIAN_POINT('',(-42.62397890985,82.633353732256,
    -57.34350613386));
#75 = CARTESIAN_POINT('',(-1.463243688654E-12,87.449795608712,
    -57.34350613386));
#76 = CARTESIAN_POINT('',(42.623978909855,82.633353732254,
    -57.34350613386));
#77 = CARTESIAN_POINT('',(61.249930393781,65.55824915634,-57.34350613385
    ));
#78 = CARTESIAN_POINT('',(67.313524105177,40.569302105883,
    -57.34350613386));
#79 = CARTESIAN_POINT('',(69.894695393014,1.617222291925,-57.34350613385
    ));
#80 = CARTESIAN_POINT('',(67.568526895536,-41.98549674279,
    -57.34350613386));
#81 = CARTESIAN_POINT('',(60.355190833388,-62.66538683929,
    -57.34350613385));
#82 = CARTESIAN_POINT('',(45.788463278098,-83.49196953456,
    -57.34350613386));
#83 = CARTESIAN_POINT('',(19.555567931582,-85.16977076726,
    -57.34350613386));
#84 = CARTESIAN_POINT('',(-8.108132818491E-12,-85.08751369072,
    -57.34350613386));
#85 = CARTESIAN_POINT('',(-8.923808430377E-12,-93.64729081168,
    -53.02849043045));
#86 = CARTESIAN_POINT('',(-21.52285191613,-93.73782292426,
    -53.02849043045));
#87 = CARTESIAN_POINT('',(-50.39476828541,-91.89123541514,
    -53.02849043044));
#88 = CARTESIAN_POINT('',(-66.42690405213,-68.96950504979,
    -53.02849043045));
#89 = CARTESIAN_POINT('',(-74.36589945386,-46.2092245125,-53.02849043045
    ));
#90 = CARTESIAN_POINT('',(-76.9260797707,1.779914345945,-53.02849043045)
  );
#91 = CARTESIAN_POINT('',(-74.08524346298,44.65056114046,-53.02849043044
    ));
#92 = CARTESIAN_POINT('',(-67.41165413095,72.153388406244,
    -53.02849043045));
#93 = CARTESIAN_POINT('',(-46.91193778479,90.946243133133,
    -53.02849043044));
#94 = CARTESIAN_POINT('',(-2.473913929452E-12,96.24721754779,
    -53.02849043045));
#95 = CARTESIAN_POINT('',(46.911937784804,90.946243133133,
    -53.02849043044));
#96 = CARTESIAN_POINT('',(67.411654130959,72.153388406248,
    -53.02849043046));
#97 = CARTESIAN_POINT('',(74.085243462988,44.650561140457,
    -53.02849043044));
#98 = CARTESIAN_POINT('',(76.926079770708,1.779914345946,-53.02849043046
    ));
#99 = CARTESIAN_POINT('',(74.365899453868,-46.2092245125,-53.02849043044
    ));
#100 = CARTESIAN_POINT('',(66.426904052136,-68.96950504979,
    -53.02849043046));
#101 = CARTESIAN_POINT('',(50.394768285407,-91.89123541515,
    -53.02849043044));
#102 = CARTESIAN_POINT('',(21.52285191612,-93.73782292426,
    -53.02849043045));
#103 = CARTESIAN_POINT('',(-8.923808430377E-12,-93.64729081168,
    -53.02849043045));
#104 = CARTESIAN_POINT('',(-1.038856034979E-11,-109.0185361756,
    -42.59642908148));
#105 = CARTESIAN_POINT('',(-25.05560801476,-109.1239282089,
    -42.59642908148));
#106 = CARTESIAN_POINT('',(-58.66655427792,-106.9742422391,
    -42.59642908147));
#107 = CARTESIAN_POINT('',(-77.33020122286,-80.29014417947,
    -42.59642908148));
#108 = CARTESIAN_POINT('',(-86.57230155377,-53.79399628647,
    -42.59642908147));
#109 = CARTESIAN_POINT('',(-89.55270929509,2.072069088504,
    -42.59642908148));
#110 = CARTESIAN_POINT('',(-86.24557875133,51.979494257241,
    -42.59642908147));
#111 = CARTESIAN_POINT('',(-78.47658795932,83.996629437793,
    -42.59642908148));
#112 = CARTESIAN_POINT('',(-54.61205275809,105.87413913533,
    -42.59642908147));
#113 = CARTESIAN_POINT('',(-4.724540904357E-12,112.04521430458,
    -42.59642908148));
#114 = CARTESIAN_POINT('',(54.612052758098,105.87413913533,
    -42.59642908148));
#115 = CARTESIAN_POINT('',(78.476587959308,83.996629437792,
    -42.59642908148));
#116 = CARTESIAN_POINT('',(86.245578751337,51.979494257236,
    -42.59642908148));
#117 = CARTESIAN_POINT('',(89.5527092951,2.07206908851,-42.59642908148)
  );
#118 = CARTESIAN_POINT('',(86.572301553776,-53.79399628649,
    -42.59642908148));
#119 = CARTESIAN_POINT('',(77.330201222873,-80.29014417945,
    -42.59642908147));
#120 = CARTESIAN_POINT('',(58.666554277904,-106.9742422391,
    -42.59642908148));
#121 = CARTESIAN_POINT('',(25.055608014749,-109.1239282089,
    -42.59642908148));
#122 = CARTESIAN_POINT('',(-1.038856034979E-11,-109.0185361756,
    -42.59642908148));
#123 = CARTESIAN_POINT('',(-1.177875464684E-11,-123.6073667894,
    -28.17466494264));
#124 = CARTESIAN_POINT('',(-28.40854260806,-123.7268623557,
    -28.17466494263));
#125 = CARTESIAN_POINT('',(-66.51729648274,-121.289505999,
    -28.17466494264));
#126 = CARTESIAN_POINT('',(-87.6785075435,-91.03454925482,
    -28.17466494263));
#127 = CARTESIAN_POINT('',(-98.15738320618,-60.99269411711,
    -28.17466494265));
#128 = CARTESIAN_POINT('',(-101.536628294,2.349352805681,-28.17466494263
    ));
#129 = CARTESIAN_POINT('',(-97.78693844792,58.935375923937,
    -28.17466494264));
#130 = CARTESIAN_POINT('',(-88.97830343864,95.237035353936,
    -28.17466494263));
#131 = CARTESIAN_POINT('',(-61.92022268142,120.04218739961,
    -28.17466494264));
#132 = CARTESIAN_POINT('',(8.084029372153E-12,127.03907415557,
    -28.17466494263));
#133 = CARTESIAN_POINT('',(61.920222681411,120.04218739961,
    -28.17466494264));
#134 = CARTESIAN_POINT('',(88.97830343867,95.237035353946,
    -28.17466494264));
#135 = CARTESIAN_POINT('',(97.786938447918,58.935375923931,
    -28.17466494264));
#136 = CARTESIAN_POINT('',(101.53662829408,2.349352805686,
    -28.17466494264));
#137 = CARTESIAN_POINT('',(98.157383206175,-60.99269411712,
    -28.17466494263));
#138 = CARTESIAN_POINT('',(87.678507543516,-91.03454925483,
    -28.17466494264));
#139 = CARTESIAN_POINT('',(66.517296482715,-121.289505999,
    -28.17466494263));
#140 = CARTESIAN_POINT('',(28.408542608044,-123.7268623557,
    -28.17466494264));
#141 = CARTESIAN_POINT('',(-1.177875464684E-11,-123.6073667894,
    -28.17466494264));
#142 = CARTESIAN_POINT('',(-1.352888499352E-11,-141.9734003963,
    0.75978837398));
#143 = CARTESIAN_POINT('',(-32.62958753293,-142.1106510499,
    0.759788373977));
#144 = CARTESIAN_POINT('',(-76.40067911897,-139.3111433916,
    0.759788373985));
#145 = CARTESIAN_POINT('',(-100.7061001375,-104.5607947726,
    0.759788373973));
#146 = CARTESIAN_POINT('',(-112.741965384,-70.05521117433,0.75978837399)
  );
#147 = CARTESIAN_POINT('',(-116.6233110381,2.698428218444,0.759788373973
    ));
#148 = CARTESIAN_POINT('',(-112.3164785918,67.692209136775,
    0.759788373986));
#149 = CARTESIAN_POINT('',(-102.1990244497,109.38770159144,
    0.759788373968));
#150 = CARTESIAN_POINT('',(-71.12055531731,137.87849364322,
    0.759788373987));
#151 = CARTESIAN_POINT('',(-1.905429608387E-11,145.91500336542,
    0.759788373972));
#152 = CARTESIAN_POINT('',(71.120555317346,137.87849364321,
    0.759788373984));
#153 = CARTESIAN_POINT('',(102.19902444972,109.38770159144,
    0.759788373977));
#154 = CARTESIAN_POINT('',(112.31647859182,67.692209136767,
    0.759788373979));
#155 = CARTESIAN_POINT('',(116.62331103813,2.698428218455,0.759788373982
    ));
#156 = CARTESIAN_POINT('',(112.74196538404,-70.05521117436,
    0.759788373976));
#157 = CARTESIAN_POINT('',(100.70610013748,-104.5607947726,
    0.759788373991));
#158 = CARTESIAN_POINT('',(76.400679118979,-139.3111433917,
    0.759788373972));
#159 = CARTESIAN_POINT('',(32.629587532905,-142.1106510499,
    0.759788373981));
#160 = CARTESIAN_POINT('',(-1.352888499352E-11,-141.9734003963,
    0.75978837398));
#161 = CARTESIAN_POINT('',(-1.341529918353E-11,-140.7814201489,
    36.743263608677));
#162 = CARTESIAN_POINT('',(-32.35563604826,-140.9175184734,
    36.743263608681));
#163 = CARTESIAN_POINT('',(-75.75923431212,-138.1415149211,
    36.74326360867));
#164 = CARTESIAN_POINT('',(-99.86059188152,-103.6829232722,
    36.743263608685));
#165 = CARTESIAN_POINT('',(-111.795406413,-69.46704164601,
    36.743263608665));
#166 = CARTESIAN_POINT('',(-115.644165066,2.675772755349,36.743263608685
    ));
#167 = CARTESIAN_POINT('',(-111.3734919227,67.123878900471,
    36.743263608669));
#168 = CARTESIAN_POINT('',(-101.3409819001,108.46930434769,
    36.743263608692));
#169 = CARTESIAN_POINT('',(-70.52344137284,136.72089341313,
    36.743263608666));
#170 = CARTESIAN_POINT('',(9.225717990785E-12,144.68993020854,
    36.743263608688));
#171 = CARTESIAN_POINT('',(70.523441372832,136.72089341313,
    36.74326360867));
#172 = CARTESIAN_POINT('',(101.34098190017,108.4693043477,
    36.743263608683));
#173 = CARTESIAN_POINT('',(111.3734919227,67.123878900467,
    36.743263608676));
#174 = CARTESIAN_POINT('',(115.64416506601,2.675772755349,
    36.743263608675));
#175 = CARTESIAN_POINT('',(111.79540641299,-69.46704164602,
    36.74326360868));
#176 = CARTESIAN_POINT('',(99.860591881546,-103.6829232722,
    36.743263608664));
#177 = CARTESIAN_POINT('',(75.759234312095,-138.1415149211,
    36.743263608686));
#178 = CARTESIAN_POINT('',(32.355636048246,-140.9175184734,
    36.743263608675));
#179 = CARTESIAN_POINT('',(-1.341529918353E-11,-140.7814201489,
    36.743263608677));
#180 = CARTESIAN_POINT('',(-1.32721742209E-11,-139.2794532362,
    73.838543605963));
#181 = CARTESIAN_POINT('',(-32.01044067566,-139.4140995568,
    73.838543605959));
#182 = CARTESIAN_POINT('',(-74.9509752169,-136.6677125935,
    73.838543605968));
#183 = CARTESIAN_POINT('',(-98.79520054844,-102.5767523016,
    73.838543605956));
#184 = CARTESIAN_POINT('',(-110.6026850918,-68.72591261087,
    73.838543605975));
#185 = CARTESIAN_POINT('',(-114.4103821606,2.647225507126,
    73.838543605954));
#186 = CARTESIAN_POINT('',(-110.1852719172,66.40774856839,
    73.838543605972));
#187 = CARTESIAN_POINT('',(-100.259796602,107.31206849936,
    73.838543605944));
#188 = CARTESIAN_POINT('',(-69.77104183458,135.26224739315,
    73.838543605975));
#189 = CARTESIAN_POINT('',(-1.44036674539E-11,143.14626423653,
    73.83854360595));
#190 = CARTESIAN_POINT('',(69.771041834603,135.26224739315,
    73.838543605969));
#191 = CARTESIAN_POINT('',(100.25979660199,107.31206849937,
    73.838543605957));
#192 = CARTESIAN_POINT('',(110.18527191722,66.407748568379,
    73.838543605963));
#193 = CARTESIAN_POINT('',(114.4103821606,2.647225507141,73.838543605965
    ));
#194 = CARTESIAN_POINT('',(110.6026850919,-68.7259126109,73.838543605958
    ));
#195 = CARTESIAN_POINT('',(98.795200548423,-102.5767523016,
    73.838543605979));
#196 = CARTESIAN_POINT('',(74.9509752169,-136.6677125936,73.838543605951
    ));
#197 = CARTESIAN_POINT('',(32.010440675636,-139.4140995567,
    73.838543605965));
#198 = CARTESIAN_POINT('',(-1.32721742209E-11,-139.2794532362,
    73.838543605963));
#199 = CARTESIAN_POINT('',(-1.180598655819E-11,-123.8931410462,
    110.06653846133));
#200 = CARTESIAN_POINT('',(-28.47422178527,-124.0129128804,
    110.06653846133));
#201 = CARTESIAN_POINT('',(-66.6710812567,-121.5699214736,
    110.06653846131));
#202 = CARTESIAN_POINT('',(-87.88121601448,-91.24501673202,
    110.06653846135));
#203 = CARTESIAN_POINT('',(-98.38431833114,-61.13370627746,
    110.06653846131));
#204 = CARTESIAN_POINT('',(-101.7713760703,2.354784395792,
    110.06653846134));
#205 = CARTESIAN_POINT('',(-98.01301712251,59.071631664091,
    110.06653846131));
#206 = CARTESIAN_POINT('',(-89.18401697491,95.457218775834,
    110.06653846136));
#207 = CARTESIAN_POINT('',(-62.06337924298,120.31971913394,
    110.0665384613));
#208 = CARTESIAN_POINT('',(7.653922705194E-12,127.33278235384,
    110.06653846135));
#209 = CARTESIAN_POINT('',(62.063379242972,120.31971913394,
    110.06653846131));
#210 = CARTESIAN_POINT('',(89.184016974936,95.457218775833,
    110.06653846135));
#211 = CARTESIAN_POINT('',(98.013017122499,59.071631664092,
    110.06653846132));
#212 = CARTESIAN_POINT('',(101.77137607034,2.354784395787,
    110.06653846134));
#213 = CARTESIAN_POINT('',(98.384318331126,-61.13370627747,
    110.06653846132));
#214 = CARTESIAN_POINT('',(87.881216014518,-91.24501673205,
    110.06653846133));
#215 = CARTESIAN_POINT('',(66.671081256666,-121.5699214736,
    110.06653846132));
#216 = CARTESIAN_POINT('',(28.474221785265,-124.0129128804,
    110.06653846133));
#217 = CARTESIAN_POINT('',(-1.180598655819E-11,-123.8931410462,
    110.06653846133));
#218 = CARTESIAN_POINT('',(-9.437458952461E-12,-99.03758803652,
    141.14628969165));
#219 = CARTESIAN_POINT('',(-22.76169788753,-99.13333113802,
    141.14628969165));
#220 = CARTESIAN_POINT('',(-53.29546917359,-97.18045485706,
    141.14628969164));
#221 = CARTESIAN_POINT('',(-70.25040768439,-72.93935968676,
    141.14628969166));
#222 = CARTESIAN_POINT('',(-78.64636819966,-48.86900732621,
    141.14628969165));
#223 = CARTESIAN_POINT('',(-81.35391137921,1.882365439589,
    141.14628969165));
#224 = CARTESIAN_POINT('',(-78.34955777232,47.220627970106,
    141.14628969165));
#225 = CARTESIAN_POINT('',(-71.29183954834,76.306505980934,
    141.14628969163));
#226 = CARTESIAN_POINT('',(-49.61216846804,96.181069231335,
    141.14628969167));
#227 = CARTESIAN_POINT('',(-1.015516479817E-11,101.78716542191,
    141.14628969163));
#228 = CARTESIAN_POINT('',(49.612168468059,96.181069231333,
    141.14628969166));
#229 = CARTESIAN_POINT('',(71.29183954832,76.306505980942,
    141.14628969163));
#230 = CARTESIAN_POINT('',(78.349557772336,47.220627970096,
    141.14628969166));
#231 = CARTESIAN_POINT('',(81.3539113792,1.882365439603,141.14628969164)
  );
#232 = CARTESIAN_POINT('',(78.646368199679,-48.86900732623,
    141.14628969166));
#233 = CARTESIAN_POINT('',(70.250407684365,-72.93935968673,
    141.14628969165));
#234 = CARTESIAN_POINT('',(53.295469173608,-97.1804548571,
    141.14628969165));
#235 = CARTESIAN_POINT('',(22.761697887514,-99.13333113801,
    141.14628969165));
#236 = CARTESIAN_POINT('',(-9.437458952461E-12,-99.03758803652,
    141.14628969165));
#237 = CARTESIAN_POINT('',(-6.55959812771E-12,-68.83704398925,
    158.83378937123));
#238 = CARTESIAN_POINT('',(-15.82074068863,-68.90359116816,
    158.83378937123));
#239 = CARTESIAN_POINT('',(-37.04353699101,-67.54622541315,
    158.83378937124));
#240 = CARTESIAN_POINT('',(-48.82823279427,-50.69721517708,
    158.83378937121));
#241 = CARTESIAN_POINT('',(-54.66392724911,-33.96688140045,
    158.83378937123));
#242 = CARTESIAN_POINT('',(-56.54583161135,1.308356505194,
    158.83378937122));
#243 = CARTESIAN_POINT('',(-54.45762625927,32.821159210603,
    158.83378937123));
#244 = CARTESIAN_POINT('',(-49.5520901948,53.037583133925,
    158.83378937125));
#245 = CARTESIAN_POINT('',(-34.483422819,66.851592661696,158.83378937121
    ));
#246 = CARTESIAN_POINT('',(4.722887847276E-12,70.748164637249,
    158.83378937125));
#247 = CARTESIAN_POINT('',(34.483422818997,66.851592661697,
    158.83378937121));
#248 = CARTESIAN_POINT('',(49.552090194826,53.037583133923,
    158.83378937125));
#249 = CARTESIAN_POINT('',(54.457626259264,32.821159210606,
    158.83378937122));
#250 = CARTESIAN_POINT('',(56.545831611359,1.308356505189,
    158.83378937124));
#251 = CARTESIAN_POINT('',(54.663927249096,-33.96688140045,
    158.83378937122));
#252 = CARTESIAN_POINT('',(48.828232794295,-50.6972151771,
    158.83378937123));
#253 = CARTESIAN_POINT('',(37.043536990995,-67.54622541314,
    158.83378937122));
#254 = CARTESIAN_POINT('',(15.820740688632,-68.90359116817,
    158.83378937123));
#255 = CARTESIAN_POINT('',(-6.55959812771E-12,-68.83704398925,
    158.83378937123));
#256 = CARTESIAN_POINT('',(-4.264644897964E-12,-44.75358744913,
    166.27605153979));
#257 = CARTESIAN_POINT('',(-10.28566685736,-44.79685230796,
    166.2760515398));
#258 = CARTESIAN_POINT('',(-24.08341608061,-43.91437706651,
    166.27605153975));
#259 = CARTESIAN_POINT('',(-31.74509624043,-32.96019296249,
    166.27605153985));
#260 = CARTESIAN_POINT('',(-35.53910375405,-22.08316495066,
    166.27605153977));
#261 = CARTESIAN_POINT('',(-36.76260154776,0.850612459198,
    166.27605153982));
#262 = CARTESIAN_POINT('',(-35.40497961311,21.338287262036,
    166.27605153977));
#263 = CARTESIAN_POINT('',(-32.21570354136,34.481755422975,
    166.27605153979));
#264 = CARTESIAN_POINT('',(-22.41898822553,43.4627698244,166.2760515398)
  );
#265 = CARTESIAN_POINT('',(-2.292237625316E-12,45.996079864449,
    166.27605153978));
#266 = CARTESIAN_POINT('',(22.418988225536,43.462769824399,
    166.2760515398));
#267 = CARTESIAN_POINT('',(32.215703541356,34.481755422979,
    166.27605153977));
#268 = CARTESIAN_POINT('',(35.404979613116,21.33828726203,166.2760515398
    ));
#269 = CARTESIAN_POINT('',(36.762601547762,0.850612459205,
    166.27605153977));
#270 = CARTESIAN_POINT('',(35.539103754056,-22.08316495068,
    166.2760515398));
#271 = CARTESIAN_POINT('',(31.745096240429,-32.96019296248,
    166.27605153977));
#272 = CARTESIAN_POINT('',(24.083416080614,-43.91437706653,
    166.27605153981));
#273 = CARTESIAN_POINT('',(10.285666857354,-44.79685230795,
    166.27605153978));
#274 = CARTESIAN_POINT('',(-4.264644897964E-12,-44.75358744913,
    166.27605153979));
#275 = CARTESIAN_POINT('',(-2.290304936268E-12,-24.03467690812,
    169.31918338285));
#276 = CARTESIAN_POINT('',(-5.523862863113,-24.05791207122,
    169.31918338285));
#277 = CARTESIAN_POINT('',(-12.93387094385,-23.58398342063,
    169.31918338286));
#278 = CARTESIAN_POINT('',(-17.04853566037,-17.70109691395,
    169.31918338284));
#279 = CARTESIAN_POINT('',(-19.08608728414,-11.8596466775,
    169.31918338285));
#280 = CARTESIAN_POINT('',(-19.7431602887,0.456816912236,169.31918338285
    ));
#281 = CARTESIAN_POINT('',(-19.01405662523,11.45961406333,
    169.31918338285));
#282 = CARTESIAN_POINT('',(-17.30127281672,18.518243967745,
    169.31918338287));
#283 = CARTESIAN_POINT('',(-12.03999878714,23.341450145196,
    169.31918338284));
#284 = CARTESIAN_POINT('',(-1.440637851261E-12,24.701950873491,
    169.31918338288));
#285 = CARTESIAN_POINT('',(12.039998787143,23.341450145195,
    169.31918338284));
#286 = CARTESIAN_POINT('',(17.30127281672,18.518243967746,
    169.31918338288));
#287 = CARTESIAN_POINT('',(19.01405662523,11.45961406333,169.31918338283
    ));
#288 = CARTESIAN_POINT('',(19.743160288699,0.456816912235,
    169.31918338288));
#289 = CARTESIAN_POINT('',(19.086087284147,-11.8596466775,
    169.31918338283));
#290 = CARTESIAN_POINT('',(17.048535660372,-17.70109691395,
    169.31918338289));
#291 = CARTESIAN_POINT('',(12.933870943848,-23.58398342063,
    169.31918338282));
#292 = CARTESIAN_POINT('',(5.523862863109,-24.05791207123,
    169.31918338286));
#293 = CARTESIAN_POINT('',(-2.290304936268E-12,-24.03467690812,
    169.31918338285));
#294 = CARTESIAN_POINT('',(-1.043369603927E-12,-10.94921943757,
    169.86053878161));
#295 = CARTESIAN_POINT('',(-2.516446834816,-10.95980443109,
    169.86053878162));
#296 = CARTESIAN_POINT('',(-5.892144574389,-10.74390184947,
    169.86053878158));
#297 = CARTESIAN_POINT('',(-7.766618155437,-8.063898472076,
    169.86053878164));
#298 = CARTESIAN_POINT('',(-8.694843649348,-5.402771770996,
    169.86053878159));
#299 = CARTESIAN_POINT('',(-8.994179335901,0.20810717091,169.86053878163
    ));
#300 = CARTESIAN_POINT('',(-8.66202941624,5.220533212437,169.86053878159
    ));
#301 = CARTESIAN_POINT('',(-7.881754905369,8.436157372812,
    169.86053878163));
#302 = CARTESIAN_POINT('',(-5.484932843176,10.63341357188,169.8605387816
    ));
#303 = CARTESIAN_POINT('',(7.57891858289E-13,11.253202266216,
    169.86053878162));
#304 = CARTESIAN_POINT('',(5.484932843174,10.63341357188,169.8605387816)
  );
#305 = CARTESIAN_POINT('',(7.881754905371,8.436157372813,169.86053878162
    ));
#306 = CARTESIAN_POINT('',(8.662029416239,5.220533212436,169.86053878161
    ));
#307 = CARTESIAN_POINT('',(8.994179335904,0.208107170912,169.8605387816)
  );
#308 = CARTESIAN_POINT('',(8.694843649347,-5.402771770999,
    169.86053878162));
#309 = CARTESIAN_POINT('',(7.766618155438,-8.063898472072,169.8605387816
    ));
#310 = CARTESIAN_POINT('',(5.892144574388,-10.74390184948,
    169.86053878162));
#311 = CARTESIAN_POINT('',(2.516446834814,-10.95980443109,169.8605387816
    ));
#312 = CARTESIAN_POINT('',(-1.043369603927E-12,-10.94921943757,
    169.86053878161));
#313 = CARTESIAN_POINT('',(-3.365467118313E-13,-3.531753067144,
    169.98085560695));
#314 = CARTESIAN_POINT('',(-0.811698850118,-3.535167336403,
    169.98085560695));
#315 = CARTESIAN_POINT('',(-1.900555541088,-3.465526335125,
    169.98085560695));
#316 = CARTESIAN_POINT('',(-2.505181090596,-2.601071092263,
    169.98085560694));
#317 = CARTESIAN_POINT('',(-2.804587203865,-1.742704663293,
    169.98085560695));
#318 = CARTESIAN_POINT('',(-2.901140180551,6.712653293052E-02,
    169.98085560694));
#319 = CARTESIAN_POINT('',(-2.794002726215,1.683922245809,
    169.98085560695));
#320 = CARTESIAN_POINT('',(-2.54231931511,2.721146000059,169.98085560694
    ));
#321 = CARTESIAN_POINT('',(-1.769206334973,3.429887510323,
    169.98085560695));
#322 = CARTESIAN_POINT('',(-3.907985046681E-14,3.629805014456,
    169.98085560695));
#323 = CARTESIAN_POINT('',(1.769206334973,3.429887510323,169.98085560695
    ));
#324 = CARTESIAN_POINT('',(2.54231931511,2.721146000059,169.98085560695)
  );
#325 = CARTESIAN_POINT('',(2.794002726215,1.683922245808,169.98085560695
    ));
#326 = CARTESIAN_POINT('',(2.901140180551,6.712653293077E-02,
    169.98085560694));
#327 = CARTESIAN_POINT('',(2.804587203865,-1.742704663294,
    169.98085560695));
#328 = CARTESIAN_POINT('',(2.505181090596,-2.601071092263,
    169.98085560694));
#329 = CARTESIAN_POINT('',(1.900555541087,-3.465526335126,
    169.98085560695));
#330 = CARTESIAN_POINT('',(0.811698850117,-3.535167336403,
    169.98085560695));
#331 = CARTESIAN_POINT('',(-3.365467118313E-13,-3.531753067144,
    169.98085560695));
#332 = DEFINITIONAL_REPRESENTATION('',(#333),#337);
#333 = LINE('',#334,#335);
#334 = CARTESIAN_POINT('',(0.,0.));
#335 = VECTOR('',#336,1.);
#336 = DIRECTION('',(0.,1.));
#337 = ( GEOMETRIC_REPRESENTATION_CONTEXT(2) 
PARAMETRIC_REPRESENTATION_CONTEXT() REPRESENTATION_CONTEXT('2D SPACE',''
  ) );
#338 = ORIENTED_EDGE('',*,*,#339,.T.);
#339 = EDGE_CURVE('',#22,#340,#342,.T.);
#340 = VERTEX_POINT('',#341);
#341 = CARTESIAN_POINT('',(-3.365467118313E-13,-3.531753067144,
    169.98085560695));
#342 = SEAM_CURVE('',#343,(#359,#366),.PCURVE_S1.);
#343 = B_SPLINE_CURVE_WITH_KNOTS('',6,(#344,#345,#346,#347,#348,#349,
    #350,#351,#352,#353,#354,#355,#356,#357,#358),.UNSPECIFIED.,.F.,.F.,
  (7,1,1,1,1,1,1,1,1,7),(0.,0.101492975512,0.196052950833,0.290143557309
    ,0.412716444281,0.532191218721,0.644147998314,0.755128448176,
    0.870417315614,1.),.UNSPECIFIED.);
#344 = CARTESIAN_POINT('',(-7.583233282241E-12,-79.57916824587,-60.));
#345 = CARTESIAN_POINT('',(-8.108132818491E-12,-85.08751369072,
    -57.34350613386));
#346 = CARTESIAN_POINT('',(-8.923808430377E-12,-93.64729081168,
    -53.02849043045));
#347 = CARTESIAN_POINT('',(-1.038856034979E-11,-109.0185361756,
    -42.59642908148));
#348 = CARTESIAN_POINT('',(-1.177875464684E-11,-123.6073667894,
    -28.17466494264));
#349 = CARTESIAN_POINT('',(-1.352888499352E-11,-141.9734003963,
    0.75978837398));
#350 = CARTESIAN_POINT('',(-1.341529918353E-11,-140.7814201489,
    36.743263608677));
#351 = CARTESIAN_POINT('',(-1.32721742209E-11,-139.2794532362,
    73.838543605963));
#352 = CARTESIAN_POINT('',(-1.180598655819E-11,-123.8931410462,
    110.06653846133));
#353 = CARTESIAN_POINT('',(-9.437458952461E-12,-99.03758803652,
    141.14628969165));
#354 = CARTESIAN_POINT('',(-6.55959812771E-12,-68.83704398925,
    158.83378937123));
#355 = CARTESIAN_POINT('',(-4.264644897964E-12,-44.75358744913,
    166.27605153979));
#356 = CARTESIAN_POINT('',(-2.290304936268E-12,-24.03467690812,
    169.31918338285));
#357 = CARTESIAN_POINT('',(-1.043369603927E-12,-10.94921943757,
    169.86053878161));
#358 = CARTESIAN_POINT('',(-3.365467118313E-13,-3.531753067144,
    169.98085560695));
#359 = PCURVE('',#46,#360);
#360 = DEFINITIONAL_REPRESENTATION('',(#361),#365);
#361 = LINE('',#362,#363);
#362 = CARTESIAN_POINT('',(0.,0.));
#363 = VECTOR('',#364,1.);
#364 = DIRECTION('',(1.,0.));
#365 = ( GEOMETRIC_REPRESENTATION_CONTEXT(2) 
PARAMETRIC_REPRESENTATION_CONTEXT() REPRESENTATION_CONTEXT('2D SPACE',''
  ) );
#366 = PCURVE('',#46,#367);
#367 = DEFINITIONAL_REPRESENTATION('',(#368),#372);
#368 = LINE('',#369,#370);
#369 = CARTESIAN_POINT('',(0.,1.));
#370 = VECTOR('',#371,1.);
#371 = DIRECTION('',(1.,0.));
#372 = ( GEOMETRIC_REPRESENTATION_CONTEXT(2) 
PARAMETRIC_REPRESENTATION_CONTEXT() REPRESENTATION_CONTEXT('2D SPACE',''
  ) );
#373 = ORIENTED_EDGE('',*,*,#374,.T.);
#374 = EDGE_CURVE('',#340,#340,#375,.T.);
#375 = SURFACE_CURVE('',#376,(#396),.PCURVE_S1.);
#376 = B_SPLINE_CURVE_WITH_KNOTS('',6,(#377,#378,#379,#380,#381,#382,
    #383,#384,#385,#386,#387,#388,#389,#390,#391,#392,#393,#394,#395),
  .UNSPECIFIED.,.T.,.F.,(7,4,4,4,7),(0.,0.251034836102,0.5,
    0.748965163898,1.),.UNSPECIFIED.);
#377 = CARTESIAN_POINT('',(-3.365467118313E-13,-3.531753067144,
    169.98085560695));
#378 = CARTESIAN_POINT('',(-0.811698850118,-3.535167336403,
    169.98085560695));
#379 = CARTESIAN_POINT('',(-1.900555541088,-3.465526335125,
    169.98085560695));
#380 = CARTESIAN_POINT('',(-2.505181090596,-2.601071092263,
    169.98085560694));
#381 = CARTESIAN_POINT('',(-2.804587203865,-1.742704663293,
    169.98085560695));
#382 = CARTESIAN_POINT('',(-2.901140180551,6.712653293052E-02,
    169.98085560694));
#383 = CARTESIAN_POINT('',(-2.794002726215,1.683922245809,
    169.98085560695));
#384 = CARTESIAN_POINT('',(-2.54231931511,2.721146000059,169.98085560694
    ));
#385 = CARTESIAN_POINT('',(-1.769206334973,3.429887510323,
    169.98085560695));
#386 = CARTESIAN_POINT('',(-3.907985046681E-14,3.629805014456,
    169.98085560695));
#387 = CARTESIAN_POINT('',(1.769206334973,3.429887510323,169.98085560695
    ));
#388 = CARTESIAN_POINT('',(2.54231931511,2.721146000059,169.98085560695)
  );
#389 = CARTESIAN_POINT('',(2.794002726215,1.683922245808,169.98085560695
    ));
#390 = CARTESIAN_POINT('',(2.901140180551,6.712653293077E-02,
    169.98085560694));
#391 = CARTESIAN_POINT('',(2.804587203865,-1.742704663294,
    169.98085560695));
#392 = CARTESIAN_POINT('',(2.505181090596,-2.601071092263,
    169.98085560694));
#393 = CARTESIAN_POINT('',(1.900555541087,-3.465526335126,
    169.98085560695));
#394 = CARTESIAN_POINT('',(0.811698850117,-3.535167336403,
    169.98085560695));
#395 = CARTESIAN_POINT('',(-3.365467118313E-13,-3.531753067144,
    169.98085560695));
#396 = PCURVE('',#46,#397);
#397 = DEFINITIONAL_REPRESENTATION('',(#398),#402);
#398 = LINE('',#399,#400);
#399 = CARTESIAN_POINT('',(1.,0.));
#400 = VECTOR('',#401,1.);
#401 = DIRECTION('',(0.,1.));
#402 = ( GEOMETRIC_REPRESENTATION_CONTEXT(2) 
PARAMETRIC_REPRESENTATION_CONTEXT() REPRESENTATION_CONTEXT('2D SPACE',''
  ) );
#403 = ORIENTED_EDGE('',*,*,#339,.F.);
#404 = ( GEOMETRIC_REPRESENTATION_CONTEXT(3) 
GLOBAL_UNCERTAINTY_ASSIGNED_CONTEXT((#408)) GLOBAL_UNIT_ASSIGNED_CONTEXT
((#405,#406,#407)) REPRESENTATION_CONTEXT('Context #1',
  '3D Context with UNIT and UNCERTAINTY') );
#405 = ( LENGTH_UNIT() NAMED_UNIT(*) SI_UNIT(.MILLI.,.METRE.) );
#406 = ( NAMED_UNIT(*) PLANE_ANGLE_UNIT() SI_UNIT($,.RADIAN.) );
#407 = ( NAMED_UNIT(*) SI_UNIT($,.STERADIAN.) SOLID_ANGLE_UNIT() );
#408 = UNCERTAINTY_MEASURE_WITH_UNIT(LENGTH_MEASURE(1.E-07),#405,
  'distance_accuracy_value','confusion accuracy');
#409 = PRODUCT_RELATED_PRODUCT_CATEGORY('part',$,(#7));
ENDSEC;
END-ISO-10303-21;
