ISO-10303-21;
HEADER;
FILE_DESCRIPTION(('Open CASCADE Model'),'2;1');
FILE_NAME('Open CASCADE Shape Model','2026-10-04T00:53:49',('Author'),(
    'Open CASCADE'),'Open CASCADE STEP processor 8.0','Open CASCADE 8.0'
  ,'Unknown');
FILE_SCHEMA(('AUTOMOTIVE_DESIGN { 1 0 10303 214 1 1 1 1 }'));
ENDSEC;
DATA;
#1 = APPLICATION_PROTOCOL_DEFINITION('international standard',
  'automotive_design',2000,#2);
#2 = APPLICATION_CONTEXT(
  'core data for automotive mechanical design processes');
#3 = SHAPE_DEFINITION_REPRESENTATION(#4,#10);
#4 = PRODUCT_DEFINITION_SHAPE('','',#5);
#5 = PRODUCT_DEFINITION('design','',#6,#9);
#6 = PRODUCT_DEFINITION_FORMATION('','',#7);
#7 = PRODUCT('Open CASCADE STEP translator 8.0 1',
  'Open CASCADE STEP translator 8.0 1','',(#8));
#8 = PRODUCT_CONTEXT('',#2,'mechanical');
#9 = PRODUCT_DEFINITION_CONTEXT('part definition',#2,'design');
#10 = MANIFOLD_SURFACE_SHAPE_REPRESENTATION('',(#11,#15),#404);
#11 = AXIS2_PLACEMENT_3D('',#12,#13,#14);
#12 = CARTESIAN_POINT('',(0.,0.,0.));
#13 = DIRECTION('',(0.,0.,1.));
#14 = DIRECTION('',(1.,0.,-0.));
#15 = SHELL_BASED_SURFACE_MODEL('',(#16));
#16 = OPEN_SHELL('',(#17));
#17 = ADVANCED_FACE('',(#18),#46,.T.);
#18 = FACE_BOUND('',#19,.T.);
#19 = EDGE_LOOP('',(#20,#338,#373,#403));
#20 = ORIENTED_EDGE('',*,*,#21,.F.);
#21 = EDGE_CURVE('',#22,#22,#24,.T.);
#22 = VERTEX_POINT('',#23);
#23 = CARTESIAN_POINT('',(-6.517198048718E-12,-66.9196357356,-60.));
#24 = SURFACE_CURVE('',#25,(#45),.PCURVE_S1.);
#25 = B_SPLINE_CURVE_WITH_KNOTS('',6,(#26,#27,#28,#29,#30,#31,#32,#33,
    #34,#35,#36,#37,#38,#39,#40,#41,#42,#43,#44),.UNSPECIFIED.,.T.,.F.,(
    7,4,4,4,7),(0.,0.251024980923,0.5,0.748975019077,1.),.UNSPECIFIED.);
#26 = CARTESIAN_POINT('',(-6.517198048718E-12,-66.9196357356,-60.));
#27 = CARTESIAN_POINT('',(-15.5747995164,-66.9780877978,-59.99999999999)
  );
#28 = CARTESIAN_POINT('',(-36.13529952561,-65.63353405698,-60.));
#29 = CARTESIAN_POINT('',(-48.34528981067,-50.21687327897,
    -59.99999999999));
#30 = CARTESIAN_POINT('',(-54.30945747875,-33.07388840622,-60.));
#31 = CARTESIAN_POINT('',(-56.2047742025,0.933953901914,-59.99999999999)
  );
#32 = CARTESIAN_POINT('',(-54.0553284388,32.506933122789,-60.));
#33 = CARTESIAN_POINT('',(-49.1560609246,51.747994752387,-59.99999999999
    ));
#34 = CARTESIAN_POINT('',(-33.67430305798,65.282790963683,-60.));
#35 = CARTESIAN_POINT('',(3.069544618484E-12,68.452426354464,
    -59.99999999999));
#36 = CARTESIAN_POINT('',(33.674303057978,65.282790963686,-60.));
#37 = CARTESIAN_POINT('',(49.156060924617,51.747994752373,-60.));
#38 = CARTESIAN_POINT('',(54.055328438798,32.506933122804,
    -59.99999999999));
#39 = CARTESIAN_POINT('',(56.204774202519,0.933953901893,-60.));
#40 = CARTESIAN_POINT('',(54.309457478746,-33.07388840621,
    -59.99999999999));
#41 = CARTESIAN_POINT('',(48.345289810685,-50.216873279,-60.));
#42 = CARTESIAN_POINT('',(36.135299525592,-65.63353405697,
    -59.99999999999));
#43 = CARTESIAN_POINT('',(15.574799516394,-66.97808779781,-60.));
#44 = CARTESIAN_POINT('',(-6.517198048718E-12,-66.9196357356,-60.));
#45 = PCURVE('',#46,#332);
#46 = B_SPLINE_SURFACE_WITH_KNOTS('',5,6,(
    (#47,#48,#49,#50,#51,#52,#53,#54,#55,#56,#57,#58,#59,#60,#61,#62,#63
      ,#64,#65)
    ,(#66,#67,#68,#69,#70,#71,#72,#73,#74,#75,#76,#77,#78,#79,#80,#81
      ,#82,#83,#84)
    ,(#85,#86,#87,#88,#89,#90,#91,#92,#93,#94,#95,#96,#97,#98,#99,#100
      ,#101,#102,#103)
    ,(#104,#105,#106,#107,#108,#109,#110,#111,#112,#113,#114,#115,#116
      ,#117,#118,#119,#120,#121,#122)
    ,(#123,#124,#125,#126,#127,#128,#129,#130,#131,#132,#133,#134,#135
      ,#136,#137,#138,#139,#140,#141)
    ,(#142,#143,#144,#145,#146,#147,#148,#149,#150,#151,#152,#153,#154
      ,#155,#156,#157,#158,#159,#160)
    ,(#161,#162,#163,#164,#165,#166,#167,#168,#169,#170,#171,#172,#173
      ,#174,#175,#176,#177,#178,#179)
    ,(#180,#181,#182,#183,#184,#185,#186,#187,#188,#189,#190,#191,#192
      ,#193,#194,#195,#196,#197,#198)
    ,(#199,#200,#201,#202,#203,#204,#205,#206,#207,#208,#209,#210,#211
      ,#212,#213,#214,#215,#216,#217)
    ,(#218,#219,#220,#221,#222,#223,#224,#225,#226,#227,#228,#229,#230
      ,#231,#232,#233,#234,#235,#236)
    ,(#237,#238,#239,#240,#241,#242,#243,#244,#245,#246,#247,#248,#249
      ,#250,#251,#252,#253,#254,#255)
    ,(#256,#257,#258,#259,#260,#261,#262,#263,#264,#265,#266,#267,#268
      ,#269,#270,#271,#272,#273,#274)
    ,(#275,#276,#277,#278,#279,#280,#281,#282,#283,#284,#285,#286,#287
      ,#288,#289,#290,#291,#292,#293)
    ,(#294,#295,#296,#297,#298,#299,#300,#301,#302,#303,#304,#305,#306
      ,#307,#308,#309,#310,#311,#312)
    ,(#313,#314,#315,#316,#317,#318,#319,#320,#321,#322,#323,#324,#325
      ,#326,#327,#328,#329,#330,#331
    )),.UNSPECIFIED.,.F.,.T.,.F.,(6,1,1,1,1,1,1,1,1,1,6),(7,4,4,4,7),(0.
    ,9.384272042884E-02,0.181258135692,0.266198901486,0.358722943564,
    0.476039118295,0.579915700147,0.679553713105,0.779304399714,
    0.883252996366,1.),(0.,0.251024980923,0.5,0.748975019077,1.),
  .UNSPECIFIED.);
#47 = CARTESIAN_POINT('',(-6.517198048718E-12,-66.9196357356,-60.));
#48 = CARTESIAN_POINT('',(-15.5747995164,-66.9780877978,-59.99999999999)
  );
#49 = CARTESIAN_POINT('',(-36.13529952561,-65.63353405698,-60.));
#50 = CARTESIAN_POINT('',(-48.34528981067,-50.21687327897,
    -59.99999999999));
#51 = CARTESIAN_POINT('',(-54.30945747875,-33.07388840622,-60.));
#52 = CARTESIAN_POINT('',(-56.2047742025,0.933953901914,-59.99999999999)
  );
#53 = CARTESIAN_POINT('',(-54.0553284388,32.506933122789,-60.));
#54 = CARTESIAN_POINT('',(-49.1560609246,51.747994752387,-59.99999999999
    ));
#55 = CARTESIAN_POINT('',(-33.67430305798,65.282790963683,-60.));
#56 = CARTESIAN_POINT('',(3.069544618484E-12,68.452426354464,
    -59.99999999999));
#57 = CARTESIAN_POINT('',(33.674303057978,65.282790963686,-60.));
#58 = CARTESIAN_POINT('',(49.156060924617,51.747994752373,-60.));
#59 = CARTESIAN_POINT('',(54.055328438798,32.506933122804,
    -59.99999999999));
#60 = CARTESIAN_POINT('',(56.204774202519,0.933953901893,-60.));
#61 = CARTESIAN_POINT('',(54.309457478746,-33.07388840621,
    -59.99999999999));
#62 = CARTESIAN_POINT('',(48.345289810685,-50.216873279,-60.));
#63 = CARTESIAN_POINT('',(36.135299525592,-65.63353405697,
    -59.99999999999));
#64 = CARTESIAN_POINT('',(15.574799516394,-66.97808779781,-60.));
#65 = CARTESIAN_POINT('',(-6.517198048718E-12,-66.9196357356,-60.));
#66 = CARTESIAN_POINT('',(-7.090834943899E-12,-72.80983145822,
    -57.57989937596));
#67 = CARTESIAN_POINT('',(-16.94567693502,-72.87342840927,
    -57.57989937596));
#68 = CARTESIAN_POINT('',(-39.31589045922,-71.41052846696,
    -57.57989937596));
#69 = CARTESIAN_POINT('',(-52.60059120497,-54.63690947522,
    -57.57989937596));
#70 = CARTESIAN_POINT('',(-59.0897186177,-35.98501716357,-57.57989937596
    ));
#71 = CARTESIAN_POINT('',(-61.1518591195,1.016159538835,-57.57989937596)
  );
#72 = CARTESIAN_POINT('',(-58.81322140781,35.368159074347,
    -57.57989937596));
#73 = CARTESIAN_POINT('',(-53.48272553681,56.302798645059,
    -57.57989937596));
#74 = CARTESIAN_POINT('',(-36.6382796794,71.028913336714,-57.57989937596
    ));
#75 = CARTESIAN_POINT('',(5.301854549535E-13,74.477536689927,
    -57.57989937596));
#76 = CARTESIAN_POINT('',(36.638279679403,71.028913336717,
    -57.57989937596));
#77 = CARTESIAN_POINT('',(53.482725536821,56.302798645043,
    -57.57989937595));
#78 = CARTESIAN_POINT('',(58.813221407814,35.368159074363,
    -57.57989937596));
#79 = CARTESIAN_POINT('',(61.151859119513,1.016159538813,-57.57989937595
    ));
#80 = CARTESIAN_POINT('',(59.089718617695,-35.98501716356,
    -57.57989937596));
#81 = CARTESIAN_POINT('',(52.600591204985,-54.63690947524,
    -57.57989937595));
#82 = CARTESIAN_POINT('',(39.315890459206,-71.41052846697,
    -57.57989937596));
#83 = CARTESIAN_POINT('',(16.945676935014,-72.87342840927,
    -57.57989937596));
#84 = CARTESIAN_POINT('',(-7.090834943899E-12,-72.80983145822,
    -57.57989937596));
#85 = CARTESIAN_POINT('',(-8.065329999011E-12,-82.81610311465,
    -52.96047207464));
#86 = CARTESIAN_POINT('',(-19.27452516084,-82.8884402091,-52.96047207464
    ));
#87 = CARTESIAN_POINT('',(-44.71908220504,-81.22449359582,
    -52.96047207464));
#88 = CARTESIAN_POINT('',(-59.82950238831,-62.14567234045,
    -52.96047207463));
#89 = CARTESIAN_POINT('',(-67.21043205363,-40.93044623665,
    -52.96047207464));
#90 = CARTESIAN_POINT('',(-69.55597299245,1.155810574799,-52.96047207464
    ));
#91 = CARTESIAN_POINT('',(-66.89593576946,40.228813200278,
    -52.96047207464));
#92 = CARTESIAN_POINT('',(-60.83286864151,64.040505036848,
    -52.96047207464));
#93 = CARTESIAN_POINT('',(-41.67348676825,80.79043301164,-52.96047207464
    ));
#94 = CARTESIAN_POINT('',(1.003332999358E-11,84.713001454719,
    -52.96047207464));
#95 = CARTESIAN_POINT('',(41.67348676824,80.790433011644,-52.96047207464
    ));
#96 = CARTESIAN_POINT('',(60.832868641546,64.040505036832,
    -52.96047207464));
#97 = CARTESIAN_POINT('',(66.89593576944,40.228813200296,-52.96047207463
    ));
#98 = CARTESIAN_POINT('',(69.555972992483,1.155810574772,-52.96047207464
    ));
#99 = CARTESIAN_POINT('',(67.210432053609,-40.93044623663,
    -52.96047207463));
#100 = CARTESIAN_POINT('',(59.829502388343,-62.14567234049,
    -52.96047207464));
#101 = CARTESIAN_POINT('',(44.719082205009,-81.22449359581,
    -52.96047207463));
#102 = CARTESIAN_POINT('',(19.274525160837,-82.88844020911,
    -52.96047207464));
#103 = CARTESIAN_POINT('',(-8.065329999011E-12,-82.81610311465,
    -52.96047207464));
#104 = CARTESIAN_POINT('',(-9.614110246805E-12,-98.71922731651,
    -42.9628070772));
#105 = CARTESIAN_POINT('',(-22.97580010661,-98.80545525772,
    -42.9628070772));
#106 = CARTESIAN_POINT('',(-53.3064594391,-96.82198202268,-42.9628070772
    ));
#107 = CARTESIAN_POINT('',(-71.31852410792,-74.07946671941,
    -42.9628070772));
#108 = CARTESIAN_POINT('',(-80.11680905533,-48.7902940882,-42.9628070772
    ));
#109 = CARTESIAN_POINT('',(-82.91276274565,1.377760152651,-42.9628070772
    ));
#110 = CARTESIAN_POINT('',(-79.74192024748,47.953926901069,
    -42.9628070772));
#111 = CARTESIAN_POINT('',(-72.51456615176,76.338162946948,
    -42.9628070772));
#112 = CARTESIAN_POINT('',(-49.67602022581,96.304569057478,
    -42.9628070772));
#113 = CARTESIAN_POINT('',(-2.537022408148E-12,100.98038585195,
    -42.9628070772));
#114 = CARTESIAN_POINT('',(49.676020225817,96.304569057483,
    -42.9628070772));
#115 = CARTESIAN_POINT('',(72.514566151763,76.338162946919,
    -42.9628070772));
#116 = CARTESIAN_POINT('',(79.741920247479,47.953926901095,
    -42.9628070772));
#117 = CARTESIAN_POINT('',(82.912762745656,1.377760152615,-42.9628070772
    ));
#118 = CARTESIAN_POINT('',(80.11680905532,-48.79029408818,-42.9628070772
    ));
#119 = CARTESIAN_POINT('',(71.318524107943,-74.07946671946,
    -42.9628070772));
#120 = CARTESIAN_POINT('',(53.306459439065,-96.82198202268,
    -42.9628070772));
#121 = CARTESIAN_POINT('',(22.975800106609,-98.80545525773,
    -42.9628070772));
#122 = CARTESIAN_POINT('',(-9.614110246805E-12,-98.71922731651,
    -42.9628070772));
#123 = CARTESIAN_POINT('',(-1.117485879696E-11,-114.7452439682,
    -27.4179211548));
#124 = CARTESIAN_POINT('',(-26.70567690067,-114.8454700986,
    -27.4179211548));
#125 = CARTESIAN_POINT('',(-61.96019620181,-112.5400010786,
    -27.4179211548));
#126 = CARTESIAN_POINT('',(-82.89632800688,-86.10548028809,
    -27.4179211548));
#127 = CARTESIAN_POINT('',(-93.12292094361,-56.7108794367,-27.4179211548
    ));
#128 = CARTESIAN_POINT('',(-96.37276797988,1.601424860603,-27.4179211548
    ));
#129 = CARTESIAN_POINT('',(-92.68717292485,55.738736931729,
    -27.4179211548));
#130 = CARTESIAN_POINT('',(-84.28653475633,88.730851826344,
    -27.4179211548));
#131 = CARTESIAN_POINT('',(-57.74039379286,111.93859162131,
    -27.4179211548));
#132 = CARTESIAN_POINT('',(8.877480919828E-12,117.37347754392,
    -27.4179211548));
#133 = CARTESIAN_POINT('',(57.740393792847,111.93859162131,
    -27.4179211548));
#134 = CARTESIAN_POINT('',(84.286534756371,88.730851826333,
    -27.4179211548));
#135 = CARTESIAN_POINT('',(92.687172924833,55.738736931744,
    -27.4179211548));
#136 = CARTESIAN_POINT('',(96.372767979909,1.601424860579,-27.4179211548
    ));
#137 = CARTESIAN_POINT('',(93.1229209436,-56.71087943669,-27.4179211548)
  );
#138 = CARTESIAN_POINT('',(82.896328006911,-86.10548028812,
    -27.4179211548));
#139 = CARTESIAN_POINT('',(61.960196201776,-112.5400010786,
    -27.4179211548));
#140 = CARTESIAN_POINT('',(26.70567690066,-114.8454700986,-27.4179211548
    ));
#141 = CARTESIAN_POINT('',(-1.117485879696E-11,-114.7452439682,
    -27.4179211548));
#142 = CARTESIAN_POINT('',(-1.27541990261E-11,-130.9621629641,
    1.965053296441));
#143 = CARTESIAN_POINT('',(-30.47998408807,-131.0765540305,1.96505329644
    ));
#144 = CARTESIAN_POINT('',(-70.71701651108,-128.445253603,1.965053296444
    ));
#145 = CARTESIAN_POINT('',(-94.61204701934,-98.2747480559,1.965053296438
    ));
#146 = CARTESIAN_POINT('',(-106.2839619887,-64.72581501231,
    1.965053296443));
#147 = CARTESIAN_POINT('',(-109.9931091608,1.827753868637,1.965053296439
    ));
#148 = CARTESIAN_POINT('',(-105.7866298025,63.616279830194,
    1.965053296442));
#149 = CARTESIAN_POINT('',(-96.19873136963,101.27116275116,
    1.965053296441));
#150 = CARTESIAN_POINT('',(-65.90083039613,127.75884708516,
    1.965053296441));
#151 = CARTESIAN_POINT('',(1.845042820948E-12,133.96184418788,
    1.965053296441));
#152 = CARTESIAN_POINT('',(65.900830396127,127.75884708516,
    1.965053296441));
#153 = CARTESIAN_POINT('',(96.198731369653,101.27116275112,
    1.965053296442));
#154 = CARTESIAN_POINT('',(105.78662980251,63.616279830232,
    1.965053296441));
#155 = CARTESIAN_POINT('',(109.99310916088,1.827753868584,1.965053296442
    ));
#156 = CARTESIAN_POINT('',(106.28396198876,-64.72581501228,
    1.965053296441));
#157 = CARTESIAN_POINT('',(94.612047019363,-98.27474805597,
    1.965053296443));
#158 = CARTESIAN_POINT('',(70.717016511049,-128.445253603,1.96505329644)
  );
#159 = CARTESIAN_POINT('',(30.479984088058,-131.0765540305,
    1.965053296442));
#160 = CARTESIAN_POINT('',(-1.27541990261E-11,-130.9621629641,
    1.965053296441));
#161 = CARTESIAN_POINT('',(-1.292307012381E-11,-132.6961585034,
    33.712524124315));
#162 = CARTESIAN_POINT('',(-30.88355222752,-132.8120641569,
    33.712524124316));
#163 = CARTESIAN_POINT('',(-71.6533403195,-130.1459241765,
    33.712524124311));
#164 = CARTESIAN_POINT('',(-95.8647513408,-99.57594811934,33.71252412432
    ));
#165 = CARTESIAN_POINT('',(-107.6912075001,-65.58281272805,
    33.712524124311));
#166 = CARTESIAN_POINT('',(-111.449465381,1.851954118411,33.712524124318
    ));
#167 = CARTESIAN_POINT('',(-107.1872904211,64.458586821437,
    33.712524124313));
#168 = CARTESIAN_POINT('',(-97.47244407645,102.61203663791,
    33.712524124317));
#169 = CARTESIAN_POINT('',(-66.7733858225,129.45042934019,
    33.712524124314));
#170 = CARTESIAN_POINT('',(3.228033087619E-12,135.73555680077,
    33.712524124315));
#171 = CARTESIAN_POINT('',(66.773385822497,129.45042934019,
    33.712524124315));
#172 = CARTESIAN_POINT('',(97.472444076476,102.61203663789,
    33.712524124315));
#173 = CARTESIAN_POINT('',(107.18729042116,64.458586821461,
    33.712524124314));
#174 = CARTESIAN_POINT('',(111.44946538103,1.851954118374,
    33.712524124315));
#175 = CARTESIAN_POINT('',(107.69120750013,-65.58281272803,
    33.712524124315));
#176 = CARTESIAN_POINT('',(95.864751340826,-99.57594811939,
    33.712524124314));
#177 = CARTESIAN_POINT('',(71.653340319462,-130.1459241764,
    33.712524124316));
#178 = CARTESIAN_POINT('',(30.883552227512,-132.8120641569,
    33.712524124314));
#179 = CARTESIAN_POINT('',(-1.292307012381E-11,-132.6961585034,
    33.712524124315));
#180 = CARTESIAN_POINT('',(-1.271148801627E-11,-130.523599459,
    67.201873441742));
#181 = CARTESIAN_POINT('',(-30.37791331928,-130.6376074549,
    67.201873441742));
#182 = CARTESIAN_POINT('',(-70.48020076272,-128.0151186743,
    67.201873441743));
#183 = CARTESIAN_POINT('',(-94.29521206471,-97.94564752038,
    67.201873441742));
#184 = CARTESIAN_POINT('',(-105.9280403557,-64.50906248121,
    67.201873441743));
#185 = CARTESIAN_POINT('',(-109.624766409,1.82163312257,67.201873441742)
  );
#186 = CARTESIAN_POINT('',(-105.4323736257,63.40324288861,
    67.201873441741));
#187 = CARTESIAN_POINT('',(-95.87658295778,100.93202788126,
    67.201873441744));
#188 = CARTESIAN_POINT('',(-65.68014299672,127.33101078105,
    67.201873441741));
#189 = CARTESIAN_POINT('',(2.438808737289E-12,133.51323540957,
    67.201873441744));
#190 = CARTESIAN_POINT('',(65.680142996719,127.33101078105,
    67.201873441741));
#191 = CARTESIAN_POINT('',(95.876582957803,100.93202788123,
    67.201873441742));
#192 = CARTESIAN_POINT('',(105.43237362572,63.40324288864,
    67.201873441744));
#193 = CARTESIAN_POINT('',(109.62476640909,1.821633122531,67.20187344174
    ));
#194 = CARTESIAN_POINT('',(105.92804035576,-64.50906248119,
    67.201873441744));
#195 = CARTESIAN_POINT('',(94.295212064734,-97.94564752042,
    67.201873441739));
#196 = CARTESIAN_POINT('',(70.480200762683,-128.0151186743,
    67.201873441745));
#197 = CARTESIAN_POINT('',(30.377913319272,-130.6376074549,
    67.201873441741));
#198 = CARTESIAN_POINT('',(-1.271148801627E-11,-130.523599459,
    67.201873441742));
#199 = CARTESIAN_POINT('',(-1.166201670778E-11,-119.7474595974,
    99.363312492768));
#200 = CARTESIAN_POINT('',(-27.86988684751,-119.8520549957,
    99.363312492766));
#201 = CARTESIAN_POINT('',(-64.66129518518,-117.4460811289,
    99.363312492769));
#202 = CARTESIAN_POINT('',(-86.51011881177,-89.85917119813,
    99.363312492764));
#203 = CARTESIAN_POINT('',(-97.18253086269,-59.18313918058,
    99.363312492767));
#204 = CARTESIAN_POINT('',(-100.5740520553,1.671237535978,
    99.363312492766));
#205 = CARTESIAN_POINT('',(-96.72778680127,58.16861699811,
    99.363312492768));
#206 = CARTESIAN_POINT('',(-87.96093037316,92.598993445537,
    99.363312492768));
#207 = CARTESIAN_POINT('',(-60.25753428843,116.81845376769,
    99.363312492766));
#208 = CARTESIAN_POINT('',(8.362025278869E-12,122.49026865018,
    99.363312492769));
#209 = CARTESIAN_POINT('',(60.257534288417,116.8184537677,
    99.363312492764));
#210 = CARTESIAN_POINT('',(87.960930373191,92.598993445511,
    99.363312492775));
#211 = CARTESIAN_POINT('',(96.72778680125,58.168616998138,
    99.363312492758));
#212 = CARTESIAN_POINT('',(100.57405205535,1.671237535936,
    99.363312492779));
#213 = CARTESIAN_POINT('',(97.18253086268,-59.18313918056,
    99.363312492757));
#214 = CARTESIAN_POINT('',(86.510118811804,-89.85917119819,
    99.363312492784));
#215 = CARTESIAN_POINT('',(64.661295185147,-117.4460811289,
    99.363312492753));
#216 = CARTESIAN_POINT('',(27.869886847499,-119.8520549957,
    99.363312492771));
#217 = CARTESIAN_POINT('',(-1.166201670778E-11,-119.7474595974,
    99.363312492768));
#218 = CARTESIAN_POINT('',(-9.683652493518E-12,-99.43329826901,
    128.31855815635));
#219 = CARTESIAN_POINT('',(-23.14199216375,-99.5201499273,
    128.31855815636));
#220 = CARTESIAN_POINT('',(-53.69204384144,-97.52232953151,
    128.31855815634));
#221 = CARTESIAN_POINT('',(-71.83439612015,-74.6153096023,
    128.31855815636));
#222 = CARTESIAN_POINT('',(-80.69632216242,-49.14321147541,
    128.31855815635));
#223 = CARTESIAN_POINT('',(-83.51249997088,1.387725977248,
    128.31855815635));
#224 = CARTESIAN_POINT('',(-80.31872165174,48.300794549745,
    128.31855815635));
#225 = CARTESIAN_POINT('',(-73.03908955748,76.89034377543,
    128.31855815635));
#226 = CARTESIAN_POINT('',(-50.03534438223,97.001173936036,
    128.31855815636));
#227 = CARTESIAN_POINT('',(-4.006560766033E-12,101.71081256079,
    128.31855815635));
#228 = CARTESIAN_POINT('',(50.035344382245,97.001173936038,
    128.31855815636));
#229 = CARTESIAN_POINT('',(73.039089557482,76.890343775409,
    128.31855815634));
#230 = CARTESIAN_POINT('',(80.318721651747,48.300794549767,
    128.31855815637));
#231 = CARTESIAN_POINT('',(83.512499970891,1.387725977219,
    128.31855815633));
#232 = CARTESIAN_POINT('',(80.696322162417,-49.14321147539,
    128.31855815637));
#233 = CARTESIAN_POINT('',(71.834396120164,-74.61530960233,
    128.31855815632));
#234 = CARTESIAN_POINT('',(53.692043841413,-97.52232953151,
    128.31855815638));
#235 = CARTESIAN_POINT('',(23.141992163745,-99.5201499273,
    128.31855815634));
#236 = CARTESIAN_POINT('',(-9.683652493518E-12,-99.43329826901,
    128.31855815635));
#237 = CARTESIAN_POINT('',(-7.010335853072E-12,-71.98325387152,
    149.27029302529));
#238 = CARTESIAN_POINT('',(-16.75330021245,-72.0461288347,
    149.27029302528));
#239 = CARTESIAN_POINT('',(-38.86955466633,-70.59983654386,
    149.27029302532));
#240 = CARTESIAN_POINT('',(-52.00344012155,-54.01664097748,
    149.27029302525));
#241 = CARTESIAN_POINT('',(-58.41889936107,-35.5764952916,149.2702930253
    ));
#242 = CARTESIAN_POINT('',(-60.45762930023,1.004623532191,
    149.27029302527));
#243 = CARTESIAN_POINT('',(-58.14554110086,34.966640117521,
    149.27029302529));
#244 = CARTESIAN_POINT('',(-52.87555997523,55.663618049568,
    149.27029302529));
#245 = CARTESIAN_POINT('',(-36.22234160907,70.22255372021,
    149.27029302528));
#246 = CARTESIAN_POINT('',(9.574725389389E-12,73.632026388527,
    149.27029302529));
#247 = CARTESIAN_POINT('',(36.222341609055,70.222553720213,
    149.27029302528));
#248 = CARTESIAN_POINT('',(52.875559975266,55.663618049555,
    149.27029302531));
#249 = CARTESIAN_POINT('',(58.145541100848,34.966640117534,
    149.27029302526));
#250 = CARTESIAN_POINT('',(60.457629300257,1.004623532169,
    149.27029302532));
#251 = CARTESIAN_POINT('',(58.418899361063,-35.57649529159,
    149.27029302526));
#252 = CARTESIAN_POINT('',(52.003440121578,-54.01664097751,
    149.27029302533));
#253 = CARTESIAN_POINT('',(38.86955466631,-70.59983654385,
    149.27029302525));
#254 = CARTESIAN_POINT('',(16.753300212451,-72.0461288347,149.2702930253
    ));
#255 = CARTESIAN_POINT('',(-7.010335853072E-12,-71.98325387152,
    149.27029302529));
#256 = CARTESIAN_POINT('',(-4.462467964904E-12,-45.82133740004,
    159.37921494125));
#257 = CARTESIAN_POINT('',(-10.66440568204,-45.86136080475,
    159.37921494127));
#258 = CARTESIAN_POINT('',(-24.74262947509,-44.94071546749,
    159.37921494119));
#259 = CARTESIAN_POINT('',(-33.10307672431,-34.38459083641,
    159.37921494131));
#260 = CARTESIAN_POINT('',(-37.18687269875,-22.64641436156,
    159.37921494122));
#261 = CARTESIAN_POINT('',(-38.48463748969,0.639498652156,
    159.37921494128));
#262 = CARTESIAN_POINT('',(-37.01286499003,22.258207685781,
    159.37921494123));
#263 = CARTESIAN_POINT('',(-33.65822942884,35.432983178408,
    159.37921494127));
#264 = CARTESIAN_POINT('',(-23.05753139821,44.700554004538,
    159.37921494124));
#265 = CARTESIAN_POINT('',(-4.157652001223E-12,46.870872642404,
    159.37921494125));
#266 = CARTESIAN_POINT('',(23.057531398221,44.70055400454,
    159.37921494125));
#267 = CARTESIAN_POINT('',(33.658229428843,35.432983178395,
    159.37921494125));
#268 = CARTESIAN_POINT('',(37.012864990038,22.258207685794,
    159.37921494125));
#269 = CARTESIAN_POINT('',(38.484637489688,0.639498652139,
    159.37921494124));
#270 = CARTESIAN_POINT('',(37.186872698753,-22.64641436155,
    159.37921494125));
#271 = CARTESIAN_POINT('',(33.103076724311,-34.38459083643,
    159.37921494123));
#272 = CARTESIAN_POINT('',(24.74262947508,-44.94071546748,
    159.37921494126));
#273 = CARTESIAN_POINT('',(10.664405682042,-45.86136080475,
    159.37921494124));
#274 = CARTESIAN_POINT('',(-4.462467964904E-12,-45.82133740004,
    159.37921494125));
#275 = CARTESIAN_POINT('',(-2.463611533076E-12,-25.29675869216,
    162.67797918965));
#276 = CARTESIAN_POINT('',(-5.887538697934,-25.31885456427,
    162.67797918963));
#277 = CARTESIAN_POINT('',(-13.65975684596,-24.81059041793,
    162.6779791897));
#278 = CARTESIAN_POINT('',(-18.27534051551,-18.98283084851,
    162.67797918959));
#279 = CARTESIAN_POINT('',(-20.52989717354,-12.50249145601,
    162.67797918968));
#280 = CARTESIAN_POINT('',(-21.24635908009,0.353050434698,
    162.67797918961));
#281 = CARTESIAN_POINT('',(-20.43383208099,12.288172731222,
    162.67797918968));
#282 = CARTESIAN_POINT('',(-18.58182576455,19.561620765934,
    162.67797918961));
#283 = CARTESIAN_POINT('',(-12.72945839021,24.678003572585,
    162.67797918966));
#284 = CARTESIAN_POINT('',(5.462773821653E-12,25.876179574906,
    162.67797918963));
#285 = CARTESIAN_POINT('',(12.729458390207,24.678003572585,
    162.67797918966));
#286 = CARTESIAN_POINT('',(18.581825764573,19.561620765932,
    162.67797918963));
#287 = CARTESIAN_POINT('',(20.43383208098,12.288172731225,
    162.67797918965));
#288 = CARTESIAN_POINT('',(21.246359080112,0.353050434692,
    162.67797918964));
#289 = CARTESIAN_POINT('',(20.529897173529,-12.50249145601,
    162.67797918965));
#290 = CARTESIAN_POINT('',(18.275340515535,-18.98283084852,
    162.67797918965));
#291 = CARTESIAN_POINT('',(13.65975684595,-24.81059041793,
    162.67797918964));
#292 = CARTESIAN_POINT('',(5.887538697934,-25.31885456427,
    162.67797918965));
#293 = CARTESIAN_POINT('',(-2.463611533076E-12,-25.29675869216,
    162.67797918965));
#294 = CARTESIAN_POINT('',(-1.058552926194E-12,-10.86939137007,
    163.5994673383));
#295 = CARTESIAN_POINT('',(-2.52972972123,-10.87888541966,
    163.59946733831));
#296 = CARTESIAN_POINT('',(-5.869259575325,-10.6604968904,
    163.59946733826));
#297 = CARTESIAN_POINT('',(-7.852461688945,-8.156452781767,
    163.59946733835));
#298 = CARTESIAN_POINT('',(-8.821188907318,-5.372011267928,
    163.59946733827));
#299 = CARTESIAN_POINT('',(-9.12903486336,0.151697037347,163.59946733833
    ));
#300 = CARTESIAN_POINT('',(-8.779912113694,5.279923814115,
    163.59946733827));
#301 = CARTESIAN_POINT('',(-7.98415081803,8.405144490062,163.59946733834
    ));
#302 = CARTESIAN_POINT('',(-5.469533344408,10.603527603144,
    163.59946733828));
#303 = CARTESIAN_POINT('',(-1.21351268477E-12,11.118354188557,
    163.59946733832));
#304 = CARTESIAN_POINT('',(5.46953334441,10.603527603144,163.59946733828
    ));
#305 = CARTESIAN_POINT('',(7.984150818028,8.405144490058,163.59946733832
    ));
#306 = CARTESIAN_POINT('',(8.779912113696,5.279923814119,163.59946733829
    ));
#307 = CARTESIAN_POINT('',(9.129034863357,0.151697037343,163.59946733831
    ));
#308 = CARTESIAN_POINT('',(8.82118890732,-5.372011267926,163.59946733829
    ));
#309 = CARTESIAN_POINT('',(7.852461688942,-8.156452781771,
    163.59946733831));
#310 = CARTESIAN_POINT('',(5.869259575324,-10.66049689039,163.5994673383
    ));
#311 = CARTESIAN_POINT('',(2.529729721228,-10.87888541966,163.5994673383
    ));
#312 = CARTESIAN_POINT('',(-1.058552926194E-12,-10.86939137007,
    163.5994673383));
#313 = CARTESIAN_POINT('',(-3.229364156082E-13,-3.315962954741,
    163.65000424997));
#314 = CARTESIAN_POINT('',(-0.77175342717,-3.318859337406,
    163.65000424996));
#315 = CARTESIAN_POINT('',(-1.790555391826,-3.252234790721,
    163.65000424998));
#316 = CARTESIAN_POINT('',(-2.395577744652,-2.488317362544,
    163.65000424996));
#317 = CARTESIAN_POINT('',(-2.691110719777,-1.638858124656,
    163.65000424997));
#318 = CARTESIAN_POINT('',(-2.78502635417,4.62787417495E-02,
    163.65000424996));
#319 = CARTESIAN_POINT('',(-2.678518265067,1.61076468547,163.65000424997
    ));
#320 = CARTESIAN_POINT('',(-2.435752604377,2.564186605244,
    163.65000424996));
#321 = CARTESIAN_POINT('',(-1.668609523043,3.234854972507,
    163.65000424997));
#322 = CARTESIAN_POINT('',(1.350031197944E-13,3.391914905968,
    163.65000424996));
#323 = CARTESIAN_POINT('',(1.668609523043,3.234854972507,163.65000424997
    ));
#324 = CARTESIAN_POINT('',(2.435752604378,2.564186605243,163.65000424996
    ));
#325 = CARTESIAN_POINT('',(2.678518265067,1.610764685471,163.65000424997
    ));
#326 = CARTESIAN_POINT('',(2.785026354171,4.627874174845E-02,
    163.65000424996));
#327 = CARTESIAN_POINT('',(2.691110719776,-1.638858124655,
    163.65000424997));
#328 = CARTESIAN_POINT('',(2.395577744653,-2.488317362545,
    163.65000424996));
#329 = CARTESIAN_POINT('',(1.790555391825,-3.25223479072,163.65000424997
    ));
#330 = CARTESIAN_POINT('',(0.77175342717,-3.318859337406,163.65000424997
    ));
#331 = CARTESIAN_POINT('',(-3.229364156082E-13,-3.315962954741,
    163.65000424997));
#332 = DEFINITIONAL_REPRESENTATION('',(#333),#337);
#333 = LINE('',#334,#335);
#334 = CARTESIAN_POINT('',(0.,0.));
#335 = VECTOR('',#336,1.);
#336 = DIRECTION('',(0.,1.));
#337 = ( GEOMETRIC_REPRESENTATION_CONTEXT(2) 
PARAMETRIC_REPRESENTATION_CONTEXT() REPRESENTATION_CONTEXT('2D SPACE',''
  ) );
#338 = ORIENTED_EDGE('',*,*,#339,.T.);
#339 = EDGE_CURVE('',#22,#340,#342,.T.);
#340 = VERTEX_POINT('',#341);
#341 = CARTESIAN_POINT('',(-3.229364156082E-13,-3.315962954741,
    163.65000424997));
#342 = SEAM_CURVE('',#343,(#359,#366),.PCURVE_S1.);
#343 = B_SPLINE_CURVE_WITH_KNOTS('',5,(#344,#345,#346,#347,#348,#349,
    #350,#351,#352,#353,#354,#355,#356,#357,#358),.UNSPECIFIED.,.F.,.F.,
  (6,1,1,1,1,1,1,1,1,1,6),(0.,9.384272042884E-02,0.181258135692,
    0.266198901486,0.358722943564,0.476039118295,0.579915700147,
    0.679553713105,0.779304399714,0.883252996366,1.),.UNSPECIFIED.);
#344 = CARTESIAN_POINT('',(-6.517198048718E-12,-66.9196357356,-60.));
#345 = CARTESIAN_POINT('',(-7.090834943899E-12,-72.80983145822,
    -57.57989937596));
#346 = CARTESIAN_POINT('',(-8.065329999011E-12,-82.81610311465,
    -52.96047207464));
#347 = CARTESIAN_POINT('',(-9.614110246805E-12,-98.71922731651,
    -42.9628070772));
#348 = CARTESIAN_POINT('',(-1.117485879696E-11,-114.7452439682,
    -27.4179211548));
#349 = CARTESIAN_POINT('',(-1.27541990261E-11,-130.9621629641,
    1.965053296441));
#350 = CARTESIAN_POINT('',(-1.292307012381E-11,-132.6961585034,
    33.712524124315));
#351 = CARTESIAN_POINT('',(-1.271148801627E-11,-130.523599459,
    67.201873441742));
#352 = CARTESIAN_POINT('',(-1.166201670778E-11,-119.7474595974,
    99.363312492768));
#353 = CARTESIAN_POINT('',(-9.683652493518E-12,-99.43329826901,
    128.31855815635));
#354 = CARTESIAN_POINT('',(-7.010335853072E-12,-71.98325387152,
    149.27029302529));
#355 = CARTESIAN_POINT('',(-4.462467964904E-12,-45.82133740004,
    159.37921494125));
#356 = CARTESIAN_POINT('',(-2.463611533076E-12,-25.29675869216,
    162.67797918965));
#357 = CARTESIAN_POINT('',(-1.058552926194E-12,-10.86939137007,
    163.5994673383));
#358 = CARTESIAN_POINT('',(-3.229364156082E-13,-3.315962954741,
    163.65000424997));
#359 = PCURVE('',#46,#360);
#360 = DEFINITIONAL_REPRESENTATION('',(#361),#365);
#361 = LINE('',#362,#363);
#362 = CARTESIAN_POINT('',(0.,0.));
#363 = VECTOR('',#364,1.);
#364 = DIRECTION('',(1.,0.));
#365 = ( GEOMETRIC_REPRESENTATION_CONTEXT(2) 
PARAMETRIC_REPRESENTATION_CONTEXT() REPRESENTATION_CONTEXT('2D SPACE',''
  ) );
#366 = PCURVE('',#46,#367);
#367 = DEFINITIONAL_REPRESENTATION('',(#368),#372);
#368 = LINE('',#369,#370);
#369 = CARTESIAN_POINT('',(0.,1.));
#370 = VECTOR('',#371,1.);
#371 = DIRECTION('',(1.,0.));
#372 = ( GEOMETRIC_REPRESENTATION_CONTEXT(2) 
PARAMETRIC_REPRESENTATION_CONTEXT() REPRESENTATION_CONTEXT('2D SPACE',''
  ) );
#373 = ORIENTED_EDGE('',*,*,#374,.T.);
#374 = EDGE_CURVE('',#340,#340,#375,.T.);
#375 = SURFACE_CURVE('',#376,(#396),.PCURVE_S1.);
#376 = B_SPLINE_CURVE_WITH_KNOTS('',6,(#377,#378,#379,#380,#381,#382,
    #383,#384,#385,#386,#387,#388,#389,#390,#391,#392,#393,#394,#395),
  .UNSPECIFIED.,.T.,.F.,(7,4,4,4,7),(0.,0.251024980923,0.5,
    0.748975019077,1.),.UNSPECIFIED.);
#377 = CARTESIAN_POINT('',(-3.229364156082E-13,-3.315962954741,
    163.65000424997));
#378 = CARTESIAN_POINT('',(-0.77175342717,-3.318859337406,
    163.65000424996));
#379 = CARTESIAN_POINT('',(-1.790555391826,-3.252234790721,
    163.65000424998));
#380 = CARTESIAN_POINT('',(-2.395577744652,-2.488317362544,
    163.65000424996));
#381 = CARTESIAN_POINT('',(-2.691110719777,-1.638858124656,
    163.65000424997));
#382 = CARTESIAN_POINT('',(-2.78502635417,4.62787417495E-02,
    163.65000424996));
#383 = CARTESIAN_POINT('',(-2.678518265067,1.61076468547,163.65000424997
    ));
#384 = CARTESIAN_POINT('',(-2.435752604377,2.564186605244,
    163.65000424996));
#385 = CARTESIAN_POINT('',(-1.668609523043,3.234854972507,
    163.65000424997));
#386 = CARTESIAN_POINT('',(1.350031197944E-13,3.391914905968,
    163.65000424996));
#387 = CARTESIAN_POINT('',(1.668609523043,3.234854972507,163.65000424997
    ));
#388 = CARTESIAN_POINT('',(2.435752604378,2.564186605243,163.65000424996
    ));
#389 = CARTESIAN_POINT('',(2.678518265067,1.610764685471,163.65000424997
    ));
#390 = CARTESIAN_POINT('',(2.785026354171,4.627874174845E-02,
    163.65000424996));
#391 = CARTESIAN_POINT('',(2.691110719776,-1.638858124655,
    163.65000424997));
#392 = CARTESIAN_POINT('',(2.395577744653,-2.488317362545,
    163.65000424996));
#393 = CARTESIAN_POINT('',(1.790555391825,-3.25223479072,163.65000424997
    ));
#394 = CARTESIAN_POINT('',(0.77175342717,-3.318859337406,163.65000424997
    ));
#395 = CARTESIAN_POINT('',(-3.229364156082E-13,-3.315962954741,
    163.65000424997));
#396 = PCURVE('',#46,#397);
#397 = DEFINITIONAL_REPRESENTATION('',(#398),#402);
#398 = LINE('',#399,#400);
#399 = CARTESIAN_POINT('',(1.,0.));
#400 = VECTOR('',#401,1.);
#401 = DIRECTION('',(0.,1.));
#402 = ( GEOMETRIC_REPRESENTATION_CONTEXT(2) 
PARAMETRIC_REPRESENTATION_CONTEXT() REPRESENTATION_CONTEXT('2D SPACE',''
  ) );
#403 = ORIENTED_EDGE('',*,*,#339,.F.);
#404 = ( GEOMETRIC_REPRESENTATION_CONTEXT(3) 
GLOBAL_UNCERTAINTY_ASSIGNED_CONTEXT((#408)) GLOBAL_UNIT_ASSIGNED_CONTEXT
((#405,#406,#407)) REPRESENTATION_CONTEXT('Context #1',
  '3D Context with UNIT and UNCERTAINTY') );
#405 = ( LENGTH_UNIT() NAMED_UNIT(*) SI_UNIT(.MILLI.,.METRE.) );
#406 = ( NAMED_UNIT(*) PLANE_ANGLE_UNIT() SI_UNIT($,.RADIAN.) );
#407 = ( NAMED_UNIT(*) SI_UNIT($,.STERADIAN.) SOLID_ANGLE_UNIT() );
#408 = UNCERTAINTY_MEASURE_WITH_UNIT(LENGTH_MEASURE(1.E-07),#405,
  'distance_accuracy_value','confusion accuracy');
#409 = PRODUCT_RELATED_PRODUCT_CATEGORY('part',$,(#7));
ENDSEC;
END-ISO-10303-21;
